<?xml version="1.0" standalone="no"?>
<!DOCTYPE svg PUBLIC "-//W3C//DTD SVG 20010904//EN"
 "http://www.w3.org/TR/2001/REC-SVG-20010904/DTD/svg10.dtd">
<svg version="1.0" xmlns="http://www.w3.org/2000/svg"
 width="757.000000pt" height="223.000000pt" viewBox="0 0 757.000000 223.000000"
 preserveAspectRatio="xMidYMid meet">

<g transform="translate(0.000000,223.000000) scale(0.100000,-0.100000)"
fill="#000000" stroke="none">
<path d="M3350 1985 l0 -126 -30 23 c-68 50 -186 14 -225 -67 -23 -50 -18
-149 10 -187 55 -72 153 -96 214 -50 30 22 31 22 31 2 0 -18 6 -20 60 -20 l60
0 0 275 0 275 -60 0 -60 0 0 -125z m-19 -194 c18 -14 24 -29 24 -61 0 -32 -6
-47 -24 -61 -25 -21 -71 -25 -101 -9 -42 23 -44 106 -3 138 25 18 77 15 104
-7z"/>
<path d="M6330 1835 l0 -275 60 0 c54 0 60 2 60 21 l0 20 25 -20 c75 -58 198
-16 234 82 26 67 9 142 -42 195 -54 56 -146 63 -198 16 -19 -17 -19 -14 -19
109 l0 127 -60 0 -60 0 0 -275z m247 -47 c50 -47 16 -138 -53 -138 -49 0 -79
30 -79 80 0 32 6 47 24 61 31 25 79 24 108 -3z"/>
<path d="M2420 1950 c0 -43 -3 -50 -20 -50 -17 0 -20 -7 -20 -50 0 -43 3 -50
20 -50 19 0 20 -7 20 -120 l0 -120 55 0 55 0 0 120 0 120 35 0 35 0 0 50 0 50
-35 0 -35 0 0 50 0 50 -55 0 -55 0 0 -50z"/>
<path d="M3685 1901 c-51 -13 -92 -39 -117 -73 -18 -27 -23 -46 -23 -99 0 -56
4 -71 27 -101 38 -50 89 -72 168 -72 120 0 191 58 197 162 5 71 -24 127 -82
159 -45 24 -125 36 -170 24z m112 -113 c51 -48 15 -138 -56 -138 -47 0 -81 32
-81 79 0 72 84 109 137 59z"/>
<path d="M5639 1901 c-49 -16 -71 -33 -85 -68 -22 -53 -5 -97 47 -117 22 -9
48 -16 58 -16 25 0 42 -22 31 -39 -6 -11 -24 -13 -72 -8 l-65 6 -16 -34 -17
-35 33 -17 c43 -23 151 -23 194 0 36 19 63 62 63 101 0 26 -44 86 -63 86 -7 0
-29 5 -50 11 -31 8 -38 14 -35 32 3 19 10 22 54 25 43 2 53 7 67 31 14 23 14
30 4 34 -28 11 -123 16 -148 8z"/>
<path d="M6005 1901 c-51 -13 -92 -39 -117 -73 -18 -27 -23 -46 -23 -99 0 -56
4 -71 27 -101 38 -50 89 -72 168 -72 120 0 191 58 197 162 5 71 -24 127 -82
159 -45 24 -125 36 -170 24z m112 -113 c51 -48 15 -138 -56 -138 -47 0 -81 32
-81 79 0 72 84 109 137 59z"/>
<path d="M7214 1900 c-46 -10 -89 -44 -108 -84 -20 -43 -21 -128 -1 -170 55
-115 273 -125 330 -16 l16 30 -53 0 c-31 -1 -61 -7 -72 -15 -43 -32 -126 -5
-126 40 0 13 21 15 125 15 l125 0 0 35 c0 119 -110 196 -236 165z m102 -78 c6
-4 16 -17 23 -29 12 -23 11 -23 -64 -23 -80 0 -82 2 -47 43 15 17 68 23 88 9z"/>
<path d="M2650 1783 c0 -136 13 -175 69 -207 48 -28 174 -28 222 0 56 32 69
71 69 207 l0 117 -60 0 -60 0 0 -113 c0 -126 -5 -137 -60 -137 -55 0 -60 11
-60 137 l0 113 -60 0 -60 0 0 -117z"/>
<path d="M6790 1730 l0 -170 60 0 60 0 0 98 c0 120 13 142 85 142 l45 0 0 50
c0 33 -4 50 -12 50 -34 0 -89 -23 -103 -43 -15 -21 -15 -21 -15 11 l0 32 -60
0 -60 0 0 -170z"/>
</g>
</svg>
